<?xml version="1.0" encoding="utf-8" ?>
<svg baseProfile="full" height="200mm" version="1.1" viewBox="0,0,200,200" width="200mm" xmlns="http://www.w3.org/2000/svg" xmlns:ev="http://www.w3.org/2001/xml-events" xmlns:xlink="http://www.w3.org/1999/xlink"><defs /><rect fill="#1a1a1a" height="200" width="200" x="0" y="0" /><text alignment-baseline="middle" fill="#e1ed5e" style="dominant-baseline: central; font-size:9.0px; font-family:Arial;" text-anchor="middle" x="100.0" y="100.0">2023</text><line stroke="#e1ed5e" stroke-width="0.3" x1="100.0" x2="100.0" y1="15.0" y2="10.0" /><path d="M 100.0 14.0 a86.0,86.0 0 0,1 42.46469731375804,11.215312516191453" fill="none" id="id73" stroke="none" /><text fill="#e1ed5e" style="font-size:6.75px; font-family:Arial;" text-anchor="middle"><textPath startOffset="22.20632615414155" xlink:href="#id73">January</textPath></text><line stroke="#e1ed5e" stroke-width="0.3" x1="143.23703022742887" x2="145.7803849466894" y1="26.81831364943548" y2="22.513508569990506" /><path d="M 143.74570117128098 25.957352633546492 a86.0,86.0 0 0,1 28.547481713284135,27.462654790039103" fill="none" id="id74" stroke="none" /><text fill="#e1ed5e" style="font-size:6.75px; font-family:Arial;" text-anchor="middle"><textPath startOffset="19.985693538727396" xlink:href="#id74">February</textPath></text><line stroke="#e1ed5e" stroke-width="0.3" x1="172.23445277983987" x2="176.4835382374775" y1="55.19839476539836" y2="52.563006222186495" /><path d="M 173.08426987136738 54.67131705675599 a86.0,86.0 0 0,1 12.851231095245387,41.99856678651699" fill="none" id="id75" stroke="none" /><text fill="#e1ed5e" style="font-size:6.75px; font-family:Arial;" text-anchor="middle"><textPath startOffset="22.20632615414155" xlink:href="#id75">March</textPath></text><path d="M 119.04729006885535 91.15688171328212 l 35.60974074050498 -16.53259589103146 a60.260417248191985,60.260417248191985 0 0,0 0.42870317693818305,0.9445906236237595 l -35.889046234406514 15.917183258565638" fill="#46ff2c" stroke="none" /><path d="M 119.196687751892 91.48605970444005 l 20.558133188923957 -9.117756189028864 a43.4893378767831,43.4893378767831 0 0,0 0.29761056550877696,0.6869262178614861 l -20.712034464275416 8.762530826580774" fill="#ffea16" stroke="none" /><path d="M 119.34039704204932 91.81776055985345 l 26.648528063644623 -11.274051761716104 a49.93524306247848,49.93524306247848 0 0,0 0.3280943144137378,0.7945064065604446 l -26.838644064944557 10.813670784702355" fill="#c0ff1e" stroke="none" /><path d="M 119.85752413597 93.16781622104841 l 24.148251426912836 -8.308452280319443 a46.53758849758025,46.53758849758025 0 0,0 0.2541012304032522,0.7597303362906499 l -24.28768995108786 7.89154884110648" fill="#ebff1a" stroke="none" /><path d="M 120.45610955862082 95.25157060432595 l 19.195936681542896 -4.4559083805709525 a40.706321436986826,40.706321436986826 0 0,0 0.15256266579000696,0.6839085162040589 l -19.26979373433494 4.12482169481693" fill="#ffc312" stroke="none" /><path d="M 120.53481517161879 95.60439243477599 l 11.568784223100737 -2.4763717144037547 a32.830857334469194,32.830857334469194 0 0,0 0.11353333215921146,0.5536288481505496 l -11.609696851174945 2.2768672100897933" fill="#ff5007" stroke="none" /><path d="M 120.6074358757038 95.95851677861258 l 19.722857220513028 -3.868001677418833 a41.09857044461764,41.09857044461764 0 0,0 0.13017341245063785,0.6953915744724685 l -19.786516356873527 3.527932025483802" fill="#ffc912" stroke="none" /><path d="M 120.83666639777658 97.38593545837742 l 12.573348710341325 -1.577389799582644 a33.671908158271556,33.671908158271556 0 0,0 0.0671989421242255,0.5757194984179942 l -12.59863800546914 1.360726562839797" fill="#ff5c08" stroke="none" /><path d="M 120.91429891909075 98.10471618934814 l 56.88604554226597 -5.155095161705214 a78.11914900944336,78.11914900944336 0 0,0 0.10983372371836289,1.340249627984522 l -56.96635374980383 4.175131616512923" fill="#45ffef" stroke="none" /><path d="M 120.94382443527127 98.46500227214037 l 40.03441404141902 -2.9341696775436157 a61.14179442098204,61.14179442098204 0 0,0 0.06789478622984886,1.0503022920320766 l -40.07898941865328 2.2446083212585037" fill="#3cff2e" stroke="none" /><path d="M 120.96714384426684 98.82574320788733 l 29.184493302742396 -1.6344662744555256 a50.23022629642385,50.23022629642385 0 0,0 0.04091704426413113,0.8636941346405708 l -29.208303955240027 1.1318610331919552" fill="#bcff1f" stroke="none" /><path d="M 120.98425023603335 99.18683210126433 l 62.95275070810006 -2.4395036962070047 a84.0,84.0 0 0,0 0.04355322217741975,1.4453194103000038 l -62.98541562473312 1.355514138482002" fill="#4dd2ff" stroke="none" /><line stroke="#e1ed5e" stroke-width="0.3" x1="184.98032266829074" x2="189.97916517819016" y1="98.17113171792111" y2="98.06355123074" /><path d="M 185.9800911702706 98.14961562048488 a86.0,86.0 0 0,1 -9.607161424134198,41.387399972396054" fill="none" id="id76" stroke="none" /><text fill="#e1ed5e" style="font-size:6.75px; font-family:Arial;" text-anchor="middle"><textPath startOffset="21.466115282336823" xlink:href="#id76">April</textPath></text><path d="M 120.99513854157772 99.54816195383933 l 45.998130120791124 -0.9899294162628841 a67.00878106251473,67.00878106251473 0 0,0 0.014891881155681581,1.1533926069363702 l -46.008355009064516 0.19800055126605112" fill="#36ff6c" stroke="none" /><path d="M 120.95626037817324 101.35467743843564 l 22.85693524687049 1.4775429361895984 a43.90464193144949,43.90464193144949 0 0,0 -0.055243415735186464,0.7537525166084699 l -22.828115272470964 -1.8707685892948385" fill="#ffef16" stroke="none" /><path d="M 120.89721153311464 102.0752229133903 l 16.658165176175245 1.654259278270645 a37.74010277138352,37.74010277138352 0 0,0 -0.06976113955708961,0.6459015118324387 l -16.627221735117104 -1.940757111987875" fill="#ff990e" stroke="none" /><path d="M 120.8583938346157 102.4346265915055 l 20.895384555292942 2.4389442102499737 a42.037241848072355,42.037241848072355 0 0,0 -0.09007678278992824,0.7180005861728807 l -20.85030626325617 -2.798262550710249" fill="#ffd614" stroke="none" /><path d="M 120.81339534386255 102.79330883721812 l 23.924152821424936 3.2107950862879773 a45.138647296586974,45.138647296586974 0 0,0 -0.10997912975032356,0.7691937773220431 l -23.86533964065801 -3.6221343355904296" fill="#feff18" stroke="none" /><path d="M 120.76222939487914 103.15116336523771 l 31.518061429051272 4.783617338465304 a52.879008627721085,52.879008627721085 0 0,0 -0.14433009550739362,0.8987436424983748 l -31.43104957918259 -5.325440210656883" fill="#9bff22" stroke="none" /><path d="M 120.70491114924044 103.5080841355445 l 45.74406080225049 7.750528985083084 a67.39601058527126,67.39601058527126 0 0,0 -0.20364364970386464,1.1421417353658845 l -45.60387071020743 -8.536789471182187" fill="#36ff71" stroke="none" /><path d="M 120.64145759157962 103.86396538481128 l 22.186908674624885 4.1532651817036275 a43.572295590074496,43.572295590074496 0 0,0 -0.14434892974312655,0.7360320828912784 l -22.112129811906094 -4.534560991662851" fill="#ffeb16" stroke="none" /><path d="M 120.5718875245553 104.21870165774334 l 21.139386253656255 4.33507930303076 a42.579308694785304,42.579308694785304 0 0,0 -0.15341925346855279,0.7167236763056934 l -21.061632961463257 -4.698316798752622" fill="#ffdd14" stroke="none" /><path d="M 120.32669344350535 105.2749913415812 l 19.56230119874796 5.076623491745041 a41.210287832375705,41.210287832375705 0 0,0 -0.18409601790781985,0.6850897680346544 l -19.472017104498363 -5.412604192955243" fill="#ffca12" stroke="none" /><path d="M 120.23288151984713 105.62410040840565 l 43.43802261828319 12.074394866009504 a66.08495115187327,66.08495115187327 0 0,0 -0.31408403409425706,1.0933677266363444 l -43.22374594730284 -12.820320068150432" fill="#34ff60" stroke="none" /><path d="M 120.13307415673323 105.97154293290107 l 9.244179063554194 2.74185709185289 a30.64223142593029,30.64223142593029 0 0,0 -0.15433941502545975,0.5043901383219914 l -9.195612876022603 -2.9005742027269386" fill="#ff2e04" stroke="none" /><path d="M 120.02730092923936 106.31721596034902 l 23.47592107487453 7.40501497541156 a45.61611498794657,45.61611498794657 0 0,0 -0.24265112012797851,0.7468033576950196 l -23.344977703730304 -7.8080172330843745" fill="#f8ff18" stroke="none" /><path d="M 119.9155931802556 106.66101706037122 l 50.26532476087195 16.81186107523065 a74.00227868807889,74.00227868807889 0 0,0 -0.41444507165773425,1.2045713756751564 l -49.96848885827098 -17.674605153995103" fill="#3fffc1" stroke="none" /><path d="M 119.54520255179757 107.68017299344265 l 26.349886807464333 10.354033860874274 a49.31117362382411,49.31117362382411 0 0,0 -0.3172290783084981,0.7873365565943335 l -26.167755114898444 -10.806069785311422" fill="#c8ff1d" stroke="none" /><path d="M 119.41010516605496 108.01547362559984 l 48.39536120962502 19.985040681568265 a73.35945795798517,73.35945795798517 0 0,0 -0.49202893684029886,1.1630110636921596 l -48.044181291592416 -20.815126270926587" fill="#3effb9" stroke="none" /><path d="M 119.26925614724726 108.34839909993367 l 19.732585068779425 8.549136207891253 a42.50494462670606,42.50494462670606 0 0,0 -0.2966418370498739,0.6688490313895816 l -19.58250214699828 -8.887533575773524" fill="#ffdc14" stroke="none" /><path d="M 119.12269723197855 108.67885076344098 l 21.76957439327612 9.880137987381682 a44.90672490982581,44.90672490982581 0 0,0 -0.3255211145650726,0.7011435210553214 l -21.596278661871217 -10.253401575715834" fill="#fffd17" stroke="none" /><path d="M 118.97047184881838 109.00673069616215 l 6.196128189320743 2.9417749017975448 a27.85901189030469,27.85901189030469 0 0,0 -0.20940258575316892,0.4314313496486568 l -6.14457234695286 -3.047995207411477" fill="#ff0100" stroke="none" /><path d="M 118.64920377521936 109.65438752849418 l 43.28462295364762 22.407740783794043 a69.74079842670969,69.74079842670969 0 0,0 -0.5610729985040916,1.0613386672895697 l -42.89249744691863 -23.14949446616975" fill="#39ff8e" stroke="none" /><line stroke="#e1ed5e" stroke-width="0.3" x1="174.80103733775053" x2="179.2010983576182" y1="140.37084112569926" y2="142.7455964860345" /><path d="M 175.68104954172406 140.8457921977663 a86.0,86.0 0 0,1 -30.038265399797805,32.042727171017184" fill="none" id="id77" stroke="none" /><text fill="#e1ed5e" style="font-size:6.75px; font-family:Arial;" text-anchor="middle"><textPath startOffset="22.206326154141568" xlink:href="#id77">May</textPath></text><path d="M 117.94076556474637 110.91462005526583 l 21.665055862352176 13.180365818855538 a46.35935110837215,46.35935110837215 0 0,0 -0.42062360324729103,0.6781791779055857 l -21.434967619436925 -13.551341328126398" fill="#eeff19" stroke="none" /><path d="M 117.75023020441432 111.22182372390056 l 41.650734522608055 26.331895158601892 a70.27628627358575,70.27628627358575 0 0,0 -0.6552264320138212,1.0169259731561522 l -41.19130322721718 -27.044942731679495" fill="#3aff95" stroke="none" /><path d="M 117.55443506779139 111.5257021239791 l 5.660040193854251 3.7162082990529814 a27.770986569030832,27.770986569030832 0 0,0 -0.2658039076217034,0.3973407771466712 l -5.595233180821827 -3.8130859904054595" fill="#ff0000" stroke="none" /><path d="M 117.14729908036423 112.12312394758627 l 16.41571511537179 11.605894788398967 a41.10404179732106,41.10404179732106 0 0,0 -0.41342877345866924,0.5742164068317184 l -16.213506549537517 -11.886744800681816" fill="#ffc912" stroke="none" /><line stroke="#e1ed5e" stroke-width="0.3" x1="143.8653032363475" x2="146.44561519142675" y1="172.8068346515853" y2="177.08958963109032" /><path d="M 144.38136562736335 173.6633856474863 a86.0,86.0 0 0,1 -40.68145358897372,12.25698825130547" fill="none" id="id78" stroke="none" /><text fill="#e1ed5e" style="font-size:6.75px; font-family:Arial;" text-anchor="middle"><textPath startOffset="21.466115282336833" xlink:href="#id78">June</textPath></text><line stroke="#e1ed5e" stroke-width="0.3" x1="102.19456741930631" x2="102.32365962044197" y1="184.97166512339345" y2="189.96999836594603" /><path d="M 102.22038585953345 185.97133177190398 a86.0,86.0 0 0,1 -42.740103519485714,-10.115201625700543" fill="none" id="id79" stroke="none" /><text fill="#e1ed5e" style="font-size:6.75px; font-family:Arial;" text-anchor="middle"><textPath startOffset="22.20632615414155" xlink:href="#id79">July</textPath></text><line stroke="#e1ed5e" stroke-width="0.3" x1="58.666819895761336" x2="56.23545636021788" y1="174.27360380694188" y2="178.64263932499728" /><path d="M 58.180547188652646 175.14741091055294 a86.0,86.0 0 0,1 -31.652253787137756,-30.449443065178592" fill="none" id="id80" stroke="none" /><text fill="#e1ed5e" style="font-size:6.75px; font-family:Arial;" text-anchor="middle"><textPath startOffset="22.20632615414155" xlink:href="#id80">August</textPath></text><line stroke="#e1ed5e" stroke-width="0.3" x1="26.63291911575756" x2="22.317208475507996" y1="142.92168965132927" y2="145.44649492493687" /><path d="M 25.769776987707644 143.4266507060508 a86.0,86.0 0 0,1 -11.730757126820373,-40.83630448921669" fill="none" id="id81" stroke="none" /><text fill="#e1ed5e" style="font-size:6.75px; font-family:Arial;" text-anchor="middle"><textPath startOffset="21.46611528233685" xlink:href="#id81">September</textPath></text><line stroke="#e1ed5e" stroke-width="0.3" x1="15.007084014347285" x2="10.007500721073583" y1="101.09737516637583" y2="101.16192664675087" /><path d="M 14.007167355692545 101.11028546245083 a86.0,86.0 0 0,1 10.666146001902534,-42.60595125391555" fill="none" id="id82" stroke="none" /><text fill="#e1ed5e" style="font-size:6.75px; font-family:Arial;" text-anchor="middle"><textPath startOffset="22.20632615414155" xlink:href="#id82">October</textPath></text><line stroke="#e1ed5e" stroke-width="0.3" x1="26.266209847984243" x2="21.928928074336255" y1="57.711370442889674" y2="55.22380399835377" /><path d="M 25.398753493254645 57.213857153982495 a86.0,86.0 0 0,1 29.58750427330803,-30.492523968695096" fill="none" id="id83" stroke="none" /><text fill="#e1ed5e" style="font-size:6.75px; font-family:Arial;" text-anchor="middle"><textPath startOffset="21.46611528233685" xlink:href="#id83">November</textPath></text><line stroke="#e1ed5e" stroke-width="0.3" x1="56.762969772571076" x2="54.21961505331055" y1="26.818313649435495" y2="22.513508569990535" /><path d="M 56.25429882871897 25.957352633546506 a86.0,86.0 0 0,1 42.265352541879196,-11.944610805530505" fill="none" id="id84" stroke="none" /><text fill="#e1ed5e" style="font-size:6.75px; font-family:Arial;" text-anchor="middle"><textPath startOffset="22.20632615414155" xlink:href="#id84">December</textPath></text></svg>