<?xml version="1.0" encoding="utf-8" ?>
<svg baseProfile="full" height="200mm" version="1.1" viewBox="0,0,200,200" width="200mm" xmlns="http://www.w3.org/2000/svg" xmlns:ev="http://www.w3.org/2001/xml-events" xmlns:xlink="http://www.w3.org/1999/xlink"><defs /><rect fill="#1a1a1a" height="200" width="200" x="0" y="0" /><text alignment-baseline="middle" fill="#e1ed5e" style="dominant-baseline: central; font-size:9.0px; font-family:Arial;" text-anchor="middle" x="100.0" y="100.0">2021</text><line stroke="#e1ed5e" stroke-width="0.3" x1="100.0" x2="100.0" y1="15.0" y2="10.0" /><path d="M 100.0 14.0 a86.0,86.0 0 0,1 42.46469731375804,11.215312516191453" fill="none" id="id49" stroke="none" /><text fill="#e1ed5e" style="font-size:6.75px; font-family:Arial;" text-anchor="middle"><textPath startOffset="22.20632615414155" xlink:href="#id49">January</textPath></text><line stroke="#e1ed5e" stroke-width="0.3" x1="143.23703022742887" x2="145.7803849466894" y1="26.81831364943548" y2="22.513508569990506" /><path d="M 143.74570117128098 25.957352633546492 a86.0,86.0 0 0,1 28.547481713284135,27.462654790039103" fill="none" id="id50" stroke="none" /><text fill="#e1ed5e" style="font-size:6.75px; font-family:Arial;" text-anchor="middle"><textPath startOffset="19.985693538727396" xlink:href="#id50">February</textPath></text><path d="M 112.48926042617603 83.11751280151076 l 4.427110598706821 -5.984392626829714 a28.443941386472364,28.443941386472364 0 0,0 0.39110940369595276,0.29457549431551366 l -4.529466156161156 5.907300543008353" fill="#ff0601" stroke="none" /><path d="M 113.06298171725822 83.55741782278167 l 18.154890008283893 -22.85184786603395 a50.18573250931432,50.18573250931432 0 0,0 0.671763754710466,0.5431862382714522 l -18.54555716155885 22.535955530498367" fill="#bfff1e" stroke="none" /><path d="M 113.6212207817346 84.01681056812373 l 23.799283687304325 -27.926165034137767 a57.69164206658907,57.69164206658907 0 0,0 0.7502831054588898,0.6506381156414568 l -24.27646059140998 27.51236192507664" fill="#64ff29" stroke="none" /><path d="M 113.89432698308785 84.25364557470407 l 35.375259183779185 -40.09056139764884 a74.46645748035122,74.46645748035122 0 0,0 0.9538408978507084,0.8563677759497041 l -36.06011106922588 39.47569461292984" fill="#40ffc5" stroke="none" /><path d="M 114.16331599549186 84.49514656593476 l 16.159732314835757 -17.69036863648364 a44.96009371813539,44.96009371813539 0 0,0 0.5669084933527183,0.5268796606517849 l -16.46184869198332 17.409584389757214" fill="#fffb17" stroke="none" /><path d="M 114.42810811169701 84.74124197986012 l 29.535400512060455 -31.235802085242245 a63.98854749018911,63.98854749018911 0 0,0 0.7938137541950859,0.7636482025978595 l -30.06869750986796 30.722770795882084" fill="#31ff44" stroke="none" /><path d="M 114.68862486808459 84.99185889309783 l 44.06587460425377 -45.02442332070654 a84.0,84.0 0 0,0 1.0246567993307099,1.0202565973995252 l -44.8343672037518 44.25923087265689" fill="#4dd2ff" stroke="none" /><path d="M 114.94478906791727 85.2469230424477 l 16.115780223352864 -15.909046610535968 a43.645444050925946,43.645444050925946 0 0,0 0.5231960949602191,0.5391995660916404 l -16.387240582016194 15.629282848894213" fill="#ffe915" stroke="none" /><path d="M 115.19652480421416 85.50635884689758 l 18.389023606640936 -17.538477562756515 a46.411697787139516,46.411697787139516 0 0,0 0.5464042064672401,0.5828659105277046 l -18.68819513507864 17.219342235350755" fill="#f0ff19" stroke="none" /><path d="M 116.60985879189232 87.15038557335679 l 6.1964655224454654 -4.793670660841382 a28.834249381751057,28.834249381751057 0 0,0 0.30032114692223505,0.39518742610051666 l -6.278062609591815 4.686298458859833" fill="#ff0c01" stroke="none" /><line stroke="#e1ed5e" stroke-width="0.3" x1="172.23445277983987" x2="176.4835382374775" y1="55.19839476539836" y2="52.563006222186495" /><path d="M 173.08426987136738 54.67131705675599 a86.0,86.0 0 0,1 12.851231095245387,41.99856678651699" fill="none" id="id51" stroke="none" /><text fill="#e1ed5e" style="font-size:6.75px; font-family:Arial;" text-anchor="middle"><textPath startOffset="22.20632615414155" xlink:href="#id51">March</textPath></text><line stroke="#e1ed5e" stroke-width="0.3" x1="184.98032266829074" x2="189.97916517819016" y1="98.17113171792111" y2="98.06355123074" /><path d="M 185.9800911702706 98.14961562048488 a86.0,86.0 0 0,1 -9.607161424134198,41.387399972396054" fill="none" id="id52" stroke="none" /><text fill="#e1ed5e" style="font-size:6.75px; font-family:Arial;" text-anchor="middle"><textPath startOffset="21.466115282336823" xlink:href="#id52">April</textPath></text><line stroke="#e1ed5e" stroke-width="0.3" x1="174.80103733775053" x2="179.2010983576182" y1="140.37084112569926" y2="142.7455964860345" /><path d="M 175.68104954172406 140.8457921977663 a86.0,86.0 0 0,1 -30.038265399797805,32.042727171017184" fill="none" id="id53" stroke="none" /><text fill="#e1ed5e" style="font-size:6.75px; font-family:Arial;" text-anchor="middle"><textPath startOffset="22.206326154141568" xlink:href="#id53">May</textPath></text><line stroke="#e1ed5e" stroke-width="0.3" x1="143.8653032363475" x2="146.44561519142675" y1="172.8068346515853" y2="177.08958963109032" /><path d="M 144.38136562736335 173.6633856474863 a86.0,86.0 0 0,1 -40.68145358897372,12.25698825130547" fill="none" id="id54" stroke="none" /><text fill="#e1ed5e" style="font-size:6.75px; font-family:Arial;" text-anchor="middle"><textPath startOffset="21.466115282336833" xlink:href="#id54">June</textPath></text><line stroke="#e1ed5e" stroke-width="0.3" x1="102.19456741930631" x2="102.32365962044197" y1="184.97166512339345" y2="189.96999836594603" /><path d="M 102.22038585953345 185.97133177190398 a86.0,86.0 0 0,1 -42.740103519485714,-10.115201625700543" fill="none" id="id55" stroke="none" /><text fill="#e1ed5e" style="font-size:6.75px; font-family:Arial;" text-anchor="middle"><textPath startOffset="22.20632615414155" xlink:href="#id55">July</textPath></text><path d="M 94.11515582081647 120.15858648285463 l -2.1509277732746237 7.3680223665575735 a28.675561470012262,28.675561470012262 0 0,0 -0.4726347355594427,-0.14240096874220504 l 2.277437483274312 -7.329906028709643" fill="#ff0a01" stroke="none" /><path d="M 91.7346041902142 119.30500536409082 l -3.2908122661153194 7.686159248944488 a29.361010068822424,29.361010068822424 0 0,0 -0.4628963526168064,-0.20292015771736327 l 3.422629293389869 -7.628374537932673" fill="#ff1502" stroke="none" /><path d="M 90.42595943632237 118.69057910512821 l -3.2208641482276947 6.287817118480733 a28.064744155084306,28.064744155084306 0 0,0 -0.4280663271971363,-0.2239440707254924 l 3.3286213779513267 -6.231443628810523" fill="#ff0000" stroke="none" /><path d="M 90.10565033884886 118.52300852407294 l -18.61702162695719 34.85254333015538 a60.513203753162685,60.513203753162685 0 0,0 -0.9145481167618477,-0.49868455245003934 l 19.214192555587676 -34.52691812594557" fill="#44ff2d" stroke="none" /><line stroke="#e1ed5e" stroke-width="0.3" x1="58.666819895761336" x2="56.23545636021788" y1="174.27360380694188" y2="178.64263932499728" /><path d="M 58.180547188652646 175.14741091055294 a86.0,86.0 0 0,1 -31.652253787137756,-30.449443065178592" fill="none" id="id56" stroke="none" /><text fill="#e1ed5e" style="font-size:6.75px; font-family:Arial;" text-anchor="middle"><textPath startOffset="22.20632615414155" xlink:href="#id56">August</textPath></text><path d="M 89.7882731507175 118.34994917583269 l -15.54112177391025 27.926598399634774 a52.95968341779985,52.95968341779985 0 0,0 -0.7927591326594227,-0.45014932526646373 l 16.01952967349088 -27.654945908573676" fill="#9cff22" stroke="none" /><path d="M 89.4739219176387 118.17145234162733 l -5.315029518215769 9.175478732809701 a31.60372334398385,31.60372334398385 0 0,0 -0.4683854333227673,-0.27673036996786227 l 5.472182822566919 -9.08262979054809" fill="#ff3805" stroke="none" /><path d="M 88.54995079064634 117.60387380957326 l -4.038468040708491 6.208941155864241 a28.406765447400684,28.406765447400684 0 0,0 -0.4076036741076788,-0.270137489249556 l 4.144746413556131 -6.138505645523367" fill="#ff0600" stroke="none" /><path d="M 87.95078237400918 117.19931262002967 l -5.083509635421236 7.256311085123524 a29.859803653439904,29.859803653439904 0 0,0 -0.4184249624288252,-0.29853510082117396 l 5.2076619256989485 -7.1677317224581305" fill="#ff1d02" stroke="none" /><path d="M 87.65650970185807 116.9893568818739 l -15.214317739814463 20.940711869384483 a46.884143367795915,46.884143367795915 0 0,0 -0.6488207957967753,-0.4799821136159319 l 15.572523506029803 -20.675719807028784" fill="#e9ff1a" stroke="none" /><path d="M 86.51685102203217 116.09983520530335 l -6.364306404499461 7.599432779088172 a30.91240508525719,30.91240508525719 0 0,0 -0.405003325761391,-0.34515262057337215 l 6.494175206837908 -7.488755768291849" fill="#ff2d04" stroke="none" /><path d="M 85.97065885151581 115.62618273729859 l -6.364412721642159 7.088820148529462 a30.52665315783029,30.52665315783029 0 0,0 -0.3879798800520938,-0.35441042151341745 l 6.485492151161107 -6.978216960429468" fill="#ff2703" stroke="none" /><path d="M 85.70375840098266 115.38237550388516 l -11.70120182963042 12.590181772144582 a38.18810057316945,38.18810057316945 0 0,0 -0.4776497892024342,-0.4516476890875314 l 11.916187453223671 -12.38689944631112" fill="#ff9c0e" stroke="none" /><path d="M 84.43433777217949 114.09645910891817 l -8.017947706089343 7.261154091749703 a31.81720130910564,31.81720130910564 0 0,0 -0.3641420363619451,-0.40911743809587214 l 8.141748592099626 -7.122062483912967" fill="#ff3c05" stroke="none" /><path d="M 84.19399662182784 113.82643327865904 l -13.148480798369434 11.501743237980232 a38.469191304050504,38.469191304050504 0 0,0 -0.43169300388353155,-0.502156491103636 l 13.344516311823744 -11.273709647715066" fill="#ffa00e" stroke="none" /><path d="M 83.50135304334701 112.99209946851258 l -5.8017673817930175 4.568686093803061 a28.38467313942512,28.38467313942512 0 0,0 -0.298976009234964,-0.38646679430781467 l 5.87955020824605 -4.468141305381994" fill="#ff0500" stroke="none" /><path d="M 82.44556493220864 111.52570212397912 l -10.0153950495158 6.575800334725195 a32.98120561713376,32.98120561713376 0 0,0 -0.30750284094268826,-0.47725123788554047 l 10.127102753835533 -6.4024274969182065" fill="#ff4e07" stroke="none" /><path d="M 82.05923443525364 110.91462005526583 l -20.505280234023676 12.474793345547228 a45.00181215012632,45.00181215012632 0 0,0 -0.39691410659233645,-0.6652508731055132 l 20.716975216314243 -12.119980378555603" fill="#fffc17" stroke="none" /><line stroke="#e1ed5e" stroke-width="0.3" x1="26.63291911575756" x2="22.317208475507996" y1="142.92168965132927" y2="145.44649492493687" /><path d="M 25.769776987707644 143.4266507060508 a86.0,86.0 0 0,1 -11.730757126820373,-40.83630448921669" fill="none" id="id57" stroke="none" /><text fill="#e1ed5e" style="font-size:6.75px; font-family:Arial;" text-anchor="middle"><textPath startOffset="21.46611528233685" xlink:href="#id57">September</textPath></text><path d="M 81.69416730710424 110.29060199501025 l -9.645048825032745 5.421952682839284 a32.06456224765416,32.06456224765416 0 0,0 -0.26632457507624707,-0.4834564629654994 l 9.736949809560508 -5.255125701475961" fill="#ff4006" stroke="none" /><path d="M 80.45479744820244 107.68017299344265 l -35.40127346897922 13.91072329434246 a59.036277233678035,59.036277233678035 0 0,0 -0.3635108741818122,-0.9490121855235181 l 35.63547862275454 -13.299287541985784" fill="#55ff2b" stroke="none" /><path d="M 80.32549172779594 107.34259656027581 l -7.365311343454322 2.7487604258050253 a28.86151989531851,28.86151989531851 0 0,0 -0.16969988083747006,-0.46694118886601155 l 7.411535485297017 -2.6215714399328967" fill="#ff0d01" stroke="none" /><line stroke="#e1ed5e" stroke-width="0.3" x1="15.007084014347285" x2="10.007500721073583" y1="101.09737516637583" y2="101.16192664675087" /><path d="M 14.007167355692545 101.11028546245083 a86.0,86.0 0 0,1 10.666146001902534,-42.60595125391555" fill="none" id="id58" stroke="none" /><text fill="#e1ed5e" style="font-size:6.75px; font-family:Arial;" text-anchor="middle"><textPath startOffset="22.20632615414155" xlink:href="#id58">October</textPath></text><line stroke="#e1ed5e" stroke-width="0.3" x1="26.266209847984243" x2="21.928928074336255" y1="57.711370442889674" y2="55.22380399835377" /><path d="M 25.398753493254645 57.213857153982495 a86.0,86.0 0 0,1 29.58750427330803,-30.492523968695096" fill="none" id="id59" stroke="none" /><text fill="#e1ed5e" style="font-size:6.75px; font-family:Arial;" text-anchor="middle"><textPath startOffset="21.46611528233685" xlink:href="#id59">November</textPath></text><line stroke="#e1ed5e" stroke-width="0.3" x1="56.762969772571076" x2="54.21961505331055" y1="26.818313649435495" y2="22.513508569990535" /><path d="M 56.25429882871897 25.957352633546506 a86.0,86.0 0 0,1 42.265352541879196,-11.944610805530505" fill="none" id="id60" stroke="none" /><text fill="#e1ed5e" style="font-size:6.75px; font-family:Arial;" text-anchor="middle"><textPath startOffset="22.20632615414155" xlink:href="#id60">December</textPath></text><path d="M 90.58718382345135 81.22770947309562 l -6.967022660531893 -13.894563650024049 a36.54343281829772,36.54343281829772 0 0,0 0.5647330453148465,-0.2771120527273062 l 6.726818348206621 14.012430862886184" fill="#ff840c" stroke="none" /></svg>