<?xml version="1.0" encoding="utf-8" ?>
<svg baseProfile="full" height="200mm" version="1.1" viewBox="0,0,200,200" width="200mm" xmlns="http://www.w3.org/2000/svg" xmlns:ev="http://www.w3.org/2001/xml-events" xmlns:xlink="http://www.w3.org/1999/xlink"><defs /><rect fill="#1a1a1a" height="200" width="200" x="0" y="0" /><text alignment-baseline="middle" fill="#e1ed5e" style="dominant-baseline: central; font-size:9.0px; font-family:Arial;" text-anchor="middle" x="100.0" y="100.0">2022</text><line stroke="#e1ed5e" stroke-width="0.3" x1="100.0" x2="100.0" y1="15.0" y2="10.0" /><path d="M 100.0 14.0 a86.0,86.0 0 0,1 42.46469731375804,11.215312516191453" fill="none" id="id61" stroke="none" /><text fill="#e1ed5e" style="font-size:6.75px; font-family:Arial;" text-anchor="middle"><textPath startOffset="22.20632615414155" xlink:href="#id61">January</textPath></text><path d="M 107.08798089147638 80.2323363322302 l 2.8145104952224846 -7.849385842147438 a29.338724568339103,29.338724568339103 0 0,0 0.4739149482319505,0.17454687496659926 l -2.9492077692270118 7.799775699374514" fill="#ff1001" stroke="none" /><path d="M 107.4271985657038 80.35727306442388 l 4.306587137264152 -11.389639635079304 a33.17664090740211,33.17664090740211 0 0,0 0.5324326911692968,0.20657561233553218 l -4.502002993433116 11.313821318853226" fill="#ff4d07" stroke="none" /><path d="M 107.76421540070413 80.48803036053334 l 2.7195268504520422 -6.834344824452234 a28.35554861786982,28.35554861786982 0 0,0 0.4519552147177016,0.18436388000297038 l -2.8367659347581315 6.786520058265684" fill="#ff0000" stroke="none" /><line stroke="#e1ed5e" stroke-width="0.3" x1="143.23703022742887" x2="145.7803849466894" y1="26.81831364943548" y2="22.513508569990506" /><path d="M 143.74570117128098 25.957352633546492 a86.0,86.0 0 0,1 28.547481713284135,27.462654790039103" fill="none" id="id62" stroke="none" /><text fill="#e1ed5e" style="font-size:6.75px; font-family:Arial;" text-anchor="middle"><textPath startOffset="19.985693538727396" xlink:href="#id62">February</textPath></text><line stroke="#e1ed5e" stroke-width="0.3" x1="172.23445277983987" x2="176.4835382374775" y1="55.19839476539836" y2="52.563006222186495" /><path d="M 173.08426987136738 54.67131705675599 a86.0,86.0 0 0,1 12.851231095245387,41.99856678651699" fill="none" id="id63" stroke="none" /><text fill="#e1ed5e" style="font-size:6.75px; font-family:Arial;" text-anchor="middle"><textPath startOffset="22.20632615414155" xlink:href="#id63">March</textPath></text><path d="M 118.56541770881063 90.18545643968196 l 7.738360499737862 -4.09085738879329 a29.753133004778796,29.753133004778796 0 0,0 0.23546143044412565,0.4548365377500011 l -7.807631363342105 3.9570481287829438" fill="#ff1702" stroke="none" /><path d="M 118.73160827565052 90.50648371742162 l 11.251974275732808 -5.702703122223652 a33.61458473363163,33.61458473363163 0 0,0 0.25713554553272144,0.5183695691702945 l -11.348469834218937 5.508173964554407" fill="#ff5307" stroke="none" /><path d="M 118.89224826269711 90.83032412892265 l 22.71188510426521 -11.023601952048967 a46.245782320747395,46.245782320747395 0 0,0 0.34142998181950746,0.719138617213175 l -22.898273279926475 10.631020919195251" fill="#f4ff19" stroke="none" /><path d="M 119.34039704204932 91.81776055985345 l 24.337316066610214 -10.296259531517348 a47.42570554718351,47.42570554718351 0 0,0 0.3116056595062996,0.7545778208337074 l -24.51094341300271 9.875807140230338" fill="#e5ff1a" stroke="none" /><line stroke="#e1ed5e" stroke-width="0.3" x1="184.98032266829074" x2="189.97916517819016" y1="98.17113171792111" y2="98.06355123074" /><path d="M 185.9800911702706 98.14961562048488 a86.0,86.0 0 0,1 -9.607161424134198,41.387399972396054" fill="none" id="id64" stroke="none" /><text fill="#e1ed5e" style="font-size:6.75px; font-family:Arial;" text-anchor="middle"><textPath startOffset="21.466115282336823" xlink:href="#id64">April</textPath></text><line stroke="#e1ed5e" stroke-width="0.3" x1="174.80103733775053" x2="179.2010983576182" y1="140.37084112569926" y2="142.7455964860345" /><path d="M 175.68104954172406 140.8457921977663 a86.0,86.0 0 0,1 -30.038265399797805,32.042727171017184" fill="none" id="id65" stroke="none" /><text fill="#e1ed5e" style="font-size:6.75px; font-family:Arial;" text-anchor="middle"><textPath startOffset="22.206326154141568" xlink:href="#id65">May</textPath></text><path d="M 112.34349029814194 116.9893568818739 l 6.078529893770952 8.3663786488299 a31.341412735456597,31.341412735456597 0 0,0 -0.43918672736446723,0.31334806884370364 l -5.9336158385576 -8.469770979517822" fill="#ff3004" stroke="none" /><path d="M 112.04921762599082 117.19931262002967 l 16.63963033350154 23.751766535471454 a50.00040881075862,50.00040881075862 0 0,0 -0.7091560728726564,0.487764013352124 l -16.228317376006 -24.034671338188673" fill="#c3ff1e" stroke="none" /><path d="M 111.7513745106137 117.40417183066458 l 10.952707975272993 16.221320445584745 a40.5727629370499,40.5727629370499 0 0,0 -0.5821714292837419,0.38583147849150845 l -10.671861847249287 -16.40744994516757" fill="#ffbb11" stroke="none" /><path d="M 111.45004920935366 117.60387380957326 l 12.977351661197263 19.952024384274953 a44.80115403019529,44.80115403019529 0 0,0 -0.6500822343951909,0.4149132395673833 l -12.631987624755142 -20.172452052666145" fill="#fff617" stroke="none" /><path d="M 111.1453310114006 117.79835938074945 l 4.572080561678787 7.301311452415233 a29.614700783408026,29.614700783408026 0 0,0 -0.4343782775747916,0.26683061617368875 l -4.445723084171687 -7.3789305354173" fill="#ff1402" stroke="none" /><line stroke="#e1ed5e" stroke-width="0.3" x1="143.8653032363475" x2="146.44561519142675" y1="172.8068346515853" y2="177.08958963109032" /><path d="M 144.38136562736335 173.6633856474863 a86.0,86.0 0 0,1 -40.68145358897372,12.25698825130547" fill="none" id="id66" stroke="none" /><text fill="#e1ed5e" style="font-size:6.75px; font-family:Arial;" text-anchor="middle"><textPath startOffset="21.466115282336833" xlink:href="#id66">June</textPath></text><path d="M 110.5260780823613 118.17145234162733 l 8.762468285185696 15.126885207710126 a38.48151899967862,38.48151899967862 0 0,0 -0.5760339499187752,0.3270871103264995 l -8.500785568345721 -15.275475483831254" fill="#ff9d0e" stroke="none" /><path d="M 110.21172684928248 118.3499491758327 l 22.730869994860758 40.84620704063025 a67.74510755500829,67.74510755500829 0 0,0 -1.0238453212125949,0.5582821028539992 l -22.024401861779516 -41.23142979524401" fill="#37ff73" stroke="none" /><path d="M 109.89434966115114 118.52300852407294 l 8.36321490653689 15.65660263763244 a38.75028365197694,38.75028365197694 0 0,0 -0.5910508754003346,0.30920988321994375 l -8.09247312861006 -15.7982419397971" fill="#ffa10e" stroke="none" /><path d="M 109.57404056367764 118.69057910512821 l 28.722121691032903 56.07173731538463 a84.0,84.0 0 0,0 -1.292584369268958,0.6481286363627916 l -27.752683414081186 -56.55783379265672" fill="#4dd2ff" stroke="none" /><path d="M 106.57524785965236 119.94407469862006 l 5.5449746843093495 16.81904494953438 a38.70951770275209,38.70951770275209 0 0,0 -0.6346124136610438,0.20318285445476464 l -5.254640925557365 -16.912000650648853" fill="#ffa00e" stroke="none" /><path d="M 106.2309692047433 120.05430185196036 l 3.8718522136142157 12.461511278035465 a34.04915717188947,34.04915717188947 0 0,0 -0.5612031141146824,0.16908589466341095 l -3.6567741250592873 -12.5263125418046" fill="#ff5a08" stroke="none" /><path d="M 105.88484417918355 120.15858648285463 l 2.2908104236806293 7.847191639320117 a29.174731128389446,29.174731128389446 0 0,0 -0.4832847446902397,0.136581096250297 l -2.155394510885784 -7.885461528908934" fill="#ff0d01" stroke="none" /><path d="M 105.18746579009965 120.34920634021253 l 7.1688163789380965 28.121577975226334 a50.020942026262105,50.020942026262105 0 0,0 -0.836175590112837,0.20551161599870246 l -6.683687504082048 -28.240810849539066" fill="#c3ff1e" stroke="none" /><path d="M 104.48393922423573 120.51570834832081 l 2.031816269335456 9.296323592825766 a30.515771628978136,30.515771628978136 0 0,0 -0.5141305030192191,0.10774104570492489 l -1.8714943048868586 -9.329920619257232" fill="#ff2303" stroke="none" /><line stroke="#e1ed5e" stroke-width="0.3" x1="102.19456741930631" x2="102.32365962044197" y1="184.97166512339345" y2="189.96999836594603" /><path d="M 102.22038585953345 185.97133177190398 a86.0,86.0 0 0,1 -42.740103519485714,-10.115201625700543" fill="none" id="id67" stroke="none" /><text fill="#e1ed5e" style="font-size:6.75px; font-family:Arial;" text-anchor="middle"><textPath startOffset="22.20632615414155" xlink:href="#id67">July</textPath></text><path d="M 91.40352486487194 119.15986991738527 l -3.5307308534786577 7.86931187522618 a29.62508723140131,29.62508723140131 0 0,0 -0.46346615636653826,-0.21275458080839224 l 3.6656650056126154 -7.807370224083714" fill="#ff1502" stroke="none" /><line stroke="#e1ed5e" stroke-width="0.3" x1="58.666819895761336" x2="56.23545636021788" y1="174.27360380694188" y2="178.64263932499728" /><path d="M 58.180547188652646 175.14741091055294 a86.0,86.0 0 0,1 -31.652253787137756,-30.449443065178592" fill="none" id="id68" stroke="none" /><text fill="#e1ed5e" style="font-size:6.75px; font-family:Arial;" text-anchor="middle"><textPath startOffset="22.20632615414155" xlink:href="#id68">August</textPath></text><path d="M 83.50135304334701 112.99209946851258 l -6.169440875198244 4.858215932874499 a28.852659598059915,28.852659598059915 0 0,0 -0.3039053146770723,-0.3928385860688002 l 6.252153007093385 -4.751299352692446" fill="#ff0801" stroke="none" /><path d="M 83.28015986056508 112.70617746262583 l -19.197659616380637 14.589186733759158 a45.11212359579525,45.11212359579525 0 0,0 -0.4645232601452157,-0.6223048182707681 l 19.445944143220938 -14.256569035979082" fill="#fffa17" stroke="none" /><path d="M 83.06392112726016 112.41649034213515 l -7.450660075557881 5.4623652597415155 a30.23849391363891,30.23849391363891 0 0,0 -0.3041419506041781,-0.4224265683824738 l 7.543581818537667 -5.333305085907904" fill="#ff1e03" stroke="none" /><path d="M 82.85270091963577 112.12312394758628 l -24.749415888784416 17.49781321500818 a51.31018070126487,51.31018070126487 0 0,0 -0.5036682906240822,-0.7255717380001867 l 25.04694508657063 -17.069200214820977" fill="#b3ff20" stroke="none" /><path d="M 82.6465618267979 111.8261652097733 l -41.45270616212918 28.249534563274935 a71.16336363528156,71.16336363528156 0 0,0 -0.6811245285342167,-1.0181887539690462 l 41.93283379607413 -27.531808895100067" fill="#3bff9e" stroke="none" /><path d="M 82.44556493220864 111.52570212397912 l -14.717956659203182 9.663357645661538 a38.60678077361528,38.60678077361528 0 0,0 -0.35995332934011665,-0.5586555606509334 l 14.882114851920344 -9.408580485089155" fill="#ff9e0e" stroke="none" /><path d="M 82.24976979558568 111.22182372390057 l -15.770089666692963 9.969964575767792 a39.65732890146928,39.65732890146928 0 0,0 -0.3598154024784684,-0.5801369965136047 l 15.939369708839388 -9.697031247888923" fill="#ffae10" stroke="none" /><path d="M 82.05923443525364 110.91462005526583 l -7.779292907382836 4.732686912176833 a30.105807133228048,30.105807133228048 0 0,0 -0.2655319635054487,-0.44504684420513785 l 7.859605746586517 -4.598077974085585" fill="#ff1c02" stroke="none" /><line stroke="#e1ed5e" stroke-width="0.3" x1="26.63291911575756" x2="22.317208475507996" y1="142.92168965132927" y2="145.44649492493687" /><path d="M 25.769776987707644 143.4266507060508 a86.0,86.0 0 0,1 -11.730757126820373,-40.83630448921669" fill="none" id="id69" stroke="none" /><text fill="#e1ed5e" style="font-size:6.75px; font-family:Arial;" text-anchor="middle"><textPath startOffset="21.46611528233685" xlink:href="#id69">September</textPath></text><path d="M 81.87401531095188 110.60418214915194 l -24.615650860106147 14.400809110150576 a49.518653023830566,49.518653023830566 0 0,0 -0.42408718569328463,-0.7394317546715145 l 24.859890041951807 -13.974957509620754" fill="#c9ff1d" stroke="none" /><path d="M 81.69416730710424 110.29060199501025 l -17.88376401688041 10.053336592649151 a41.515813219479384,41.515813219479384 0 0,0 -0.34482558125151375,-0.6259585913322182 l 18.05416600758344 -9.744007482919109" fill="#ffc812" stroke="none" /><path d="M 81.51974371655577 109.97397251340807 l -39.01579355155654 21.057199992439863 a65.33551418422132,65.33551418422132 0 0,0 -0.5256319640600748,-0.9942975864240268 l 39.3724780238415 -20.382487390929708" fill="#33ff54" stroke="none" /><path d="M 81.35079622478065 109.6543875284942 l -8.628307271011288 4.466733438773172 a30.71593505412838,30.71593505412838 0 0,0 -0.23903042691925236,-0.47162970913416935 l 8.703916367716806 -4.3175495179363175" fill="#ff2603" stroke="none" /><path d="M 81.02952815118164 109.00673069616217 l -9.114099112446201 4.3271583805674645 a31.089157659686357,31.089157659686357 0 0,0 -0.2253599493748949,-0.4854052819912333 l 9.187233678660924 -4.169633031297404" fill="#ff2c04" stroke="none" /><path d="M 80.73074385275274 108.34839909993369 l -9.385470093997533 4.066251934503288 a31.22846291874658,31.22846291874658 0 0,0 -0.2094523029037092,-0.49508337285430837 l 9.454073378093549 -3.9040940359828213" fill="#ff2e04" stroke="none" /><path d="M 80.58989483394504 108.01547362559985 l -8.459274933221149 3.493288394826003 a30.152179860844612,30.152179860844612 0 0,0 -0.193975270173388,-0.48143071277422056 l 8.518152817651924 -3.3471583142089774" fill="#ff1d02" stroke="none" /><path d="M 80.20201598880116 107.00284435728193 l -22.29417872374888 7.885785925856293 a44.64774882805741,44.64774882805741 0 0,0 -0.2500468876153942,-0.7267532997639465 l 22.426616442307505 -7.500859923003049" fill="#fff417" stroke="none" /><path d="M 80.0844068197444 106.66101706037122 l -9.81253568305779 3.2819242188150826 a31.34682961632825,31.34682961632825 0 0,0 -0.16674684639129514,-0.5131940240143821 l 9.867574780465336 -3.112531294822897" fill="#ff3004" stroke="none" /><path d="M 79.58551787078972 104.9243191809786 l -9.914563470926966 2.391560793063532 a31.198927975329468,31.198927975329468 0 0,0 -0.1214372722036572,-0.5231485903446617 l 9.95426130906118 -2.2205435453702957" fill="#ff2e04" stroke="none" /><path d="M 79.50377843672027 104.57218783832718 l -10.36602280602307 2.3123971049587344 a31.620810194425466,31.620810194425466 0 0,0 -0.1139342380796765,-0.5322628296473281 l 10.404291082827186 -2.1336204558952425" fill="#ff3405" stroke="none" /><path d="M 79.4281124754447 104.21870165774334 l -25.190581890615757 5.165862853110139 a46.71481197685415,46.71481197685415 0 0,0 -0.15475964763137537,-0.7891161091138336 l 25.275771471222797 -4.731483016928351" fill="#eeff19" stroke="none" /><path d="M 79.35854240842038 103.8639653848113 l -8.66989755235174 1.6229563190253193 a29.820493794665857,29.820493794665857 0 0,0 -0.09010554392731882,-0.5053597421618159 l 8.696549538618248 -1.4734778261302897" fill="#ff1802" stroke="none" /><path d="M 79.29508885075956 103.50808413554451 l -11.136704081008524 1.8869192254550213 a32.295425709168455,32.295425709168455 0 0,0 -0.08814843541927635,-0.5489003915000951 l 11.16753427078909 -1.6949396042617126" fill="#ff3f05" stroke="none" /><path d="M 79.1416061653843 102.43462659150553 l -15.52846657894639 1.8125085736786968 a36.633888243911485,36.633888243911485 0 0,0 -0.0677163442236341,-0.6269692465963633 l 15.557365224671075 -1.5449430051975515" fill="#ff810b" stroke="none" /><path d="M 79.10278846688536 102.07522291339032 l -18.563254585754017 1.8434464905716959 a39.65456286754312,39.65456286754312 0 0,0 -0.06160695823855673,-0.6798276505374505 l 18.592236140269648 -1.523637451485679" fill="#ffae10" stroke="none" /><line stroke="#e1ed5e" stroke-width="0.3" x1="15.007084014347285" x2="10.007500721073583" y1="101.09737516637583" y2="101.16192664675087" /><path d="M 14.007167355692545 101.11028546245083 a86.0,86.0 0 0,1 10.666146001902534,-42.60595125391555" fill="none" id="id70" stroke="none" /><text fill="#e1ed5e" style="font-size:6.75px; font-family:Arial;" text-anchor="middle"><textPath startOffset="22.20632615414155" xlink:href="#id70">October</textPath></text><path d="M 79.05617556472873 98.46500227214037 l -8.7858818356179 -0.6439276979520776 a29.809447344165832,29.809447344165832 0 0,0 0.041911396185334196,-0.5114251911347858 l 8.77349595561307 0.7950668062946419" fill="#ff1802" stroke="none" /><path d="M 79.08570108090925 98.10471618934814 l -14.906206794190858 -1.3508218718950409 a35.96728835563649,35.96728835563649 0 0,0 0.06118356768949726,-0.6161101769396219 l 14.880746100819131 1.6072075795390932" fill="#ff770b" stroke="none" /><path d="M 79.21141760316559 97.0276538004421 l -8.572368304713711 -1.2256750299436676 a29.659548350271372,29.659548350271372 0 0,0 0.07661217625020421,-0.5047785193541262 l 8.550000235024205 1.373052661689886" fill="#ff1502" stroke="none" /><path d="M 79.32604984820605 96.31383870115002 l -15.267705349633752 -2.722228900081839 a36.508493054699926,36.508493054699926 0 0,0 0.11563504698453383,-0.6177270448162043 l 15.218584578739357 2.9846340223606163" fill="#ff7f0b" stroke="none" /><line stroke="#e1ed5e" stroke-width="0.3" x1="26.266209847984243" x2="21.928928074336255" y1="57.711370442889674" y2="55.22380399835377" /><path d="M 25.398753493254645 57.213857153982495 a86.0,86.0 0 0,1 29.58750427330803,-30.492523968695096" fill="none" id="id71" stroke="none" /><text fill="#e1ed5e" style="font-size:6.75px; font-family:Arial;" text-anchor="middle"><textPath startOffset="21.46611528233685" xlink:href="#id71">November</textPath></text><line stroke="#e1ed5e" stroke-width="0.3" x1="56.762969772571076" x2="54.21961505331055" y1="26.818313649435495" y2="22.513508569990535" /><path d="M 56.25429882871897 25.957352633546506 a86.0,86.0 0 0,1 42.265352541879196,-11.944610805530505" fill="none" id="id72" stroke="none" /><text fill="#e1ed5e" style="font-size:6.75px; font-family:Arial;" text-anchor="middle"><textPath startOffset="22.20632615414155" xlink:href="#id72">December</textPath></text></svg>