<?xml version="1.0" encoding="utf-8" ?>
<svg baseProfile="full" height="200mm" version="1.1" viewBox="0,0,200,200" width="200mm" xmlns="http://www.w3.org/2000/svg" xmlns:ev="http://www.w3.org/2001/xml-events" xmlns:xlink="http://www.w3.org/1999/xlink"><defs /><rect fill="#1a1a1a" height="200" width="200" x="0" y="0" /><text alignment-baseline="middle" fill="#e1ed5e" style="dominant-baseline: central; font-size:9.0px; font-family:Arial;" text-anchor="middle" x="100.0" y="100.0">2020</text><line stroke="#e1ed5e" stroke-width="0.3" x1="100.0" x2="100.0" y1="15.0" y2="10.0" /><path d="M 100.0 14.0 a86.0,86.0 0 0,1 42.35913384403234,11.155469271406648" fill="none" id="id37" stroke="none" /><text fill="#e1ed5e" style="font-size:6.75px; font-family:Arial;" text-anchor="middle"><textPath startOffset="22.145653131862478" xlink:href="#id37">January</textPath></text><line stroke="#e1ed5e" stroke-width="0.3" x1="143.13028292997686" x2="145.6673583964461" y1="26.7553504044142" y2="22.446841604673864" /><path d="M 143.63769802327073 25.89364864446614 a86.0,86.0 0 0,1 29.32050498858742,28.57503671076993" fill="none" id="id38" stroke="none" /><text fill="#e1ed5e" style="font-size:6.75px; font-family:Arial;" text-anchor="middle"><textPath startOffset="20.669276256404974" xlink:href="#id38">February</textPath></text><line stroke="#e1ed5e" stroke-width="0.3" x1="172.87174338648825" x2="177.1583165268699" y1="56.24261187166439" y2="53.66864786411523" /><path d="M 173.72905801456457 55.72781907015455 a86.0,86.0 0 0,1 12.242430191666344,42.057860355516425" fill="none" id="id39" stroke="none" /><text fill="#e1ed5e" style="font-size:6.75px; font-family:Arial;" text-anchor="middle"><textPath startOffset="22.145653131862474" xlink:href="#id39">March</textPath></text><line stroke="#e1ed5e" stroke-width="0.3" x1="184.99686870605535" x2="189.99668451229388" y1="99.2704041080226" y2="99.22748670261217" /><path d="M 185.99683186730306 99.26182062694052 a86.0,86.0 0 0,1 -10.086455211305974,41.156179273409016" fill="none" id="id40" stroke="none" /><text fill="#e1ed5e" style="font-size:6.75px; font-family:Arial;" text-anchor="middle"><textPath startOffset="21.40746469413373" xlink:href="#id40">April</textPath></text><line stroke="#e1ed5e" stroke-width="0.3" x1="174.33088141563837" x2="178.70328620479359" y1="141.23008692659167" y2="143.65538615756765" /><path d="M 175.20536237346943 141.71514677278685 a86.0,86.0 0 0,1 -30.301960400862466,31.631185727798858" fill="none" id="id41" stroke="none" /><text fill="#e1ed5e" style="font-size:6.75px; font-family:Arial;" text-anchor="middle"><textPath startOffset="22.145653131862474" xlink:href="#id41">May</textPath></text><line stroke="#e1ed5e" stroke-width="0.3" x1="143.1302829299769" x2="145.66735839644613" y1="173.24464959558577" y2="177.55315839532614" /><path d="M 143.63769802327073 174.10635135553383 a86.0,86.0 0 0,1 -40.68552437913181,11.842963189579606" fill="none" id="id42" stroke="none" /><text fill="#e1ed5e" style="font-size:6.75px; font-family:Arial;" text-anchor="middle"><textPath startOffset="21.407464694133747" xlink:href="#id42">June</textPath></text><path d="M 101.08105385017728 120.97215588758144 l 1.0022628308367172 19.44363116156453 a40.46944589681586,40.46944589681586 0 0,0 -0.6940977092757873,0.02980754215493033 l -0.6683393609601004 -19.45797127214529" fill="#ff850c" stroke="none" /><path d="M 100.72087961077811 120.9876233191556 l 0.43224702509236795 12.584400512690548 a33.59182170118793,33.59182170118793 0 0,0 -0.5764783474865517,0.014848037321776914 l -0.2161553635350724 -12.589966267362371" fill="#ff1202" stroke="none" /><line stroke="#e1ed5e" stroke-width="0.3" x1="101.45913802915013" x2="101.54496967792366" y1="184.9874750549273" y2="189.98673829345242" /><path d="M 101.47630435890484 185.9873277026323 a86.0,86.0 0 0,1 -42.54439059252881,-10.42667462771756" fill="none" id="id43" stroke="none" /><text fill="#e1ed5e" style="font-size:6.75px; font-family:Arial;" text-anchor="middle"><textPath startOffset="22.145653131862474" xlink:href="#id43">July</textPath></text><path d="M 98.55909050195518 120.95050786540614 l -1.0304457808781577 14.98245550220593 a36.01784909309287,36.01784909309287 0 0,0 -0.616472938360201,-0.04771890427642978 l 1.2874877140135947 -14.962558830934446" fill="#ff3c05" stroke="none" /><path d="M 98.19965949673042 120.92268563240118 l -1.5420689628851654 17.921178841077253 a38.987401917457916,38.987401917457916 0 0,0 -0.6663140747933114,-0.06310063564705855 l 1.8494826010634922 -17.89206644992501" fill="#ff6d0a" stroke="none" /><path d="M 97.48249496171623 120.84855314841334 l -2.032981731997206 16.836005110119505 a37.95830424277747,37.95830424277747 0 0,0 -0.6462350290576055,-0.08366806258751745 l 2.3216945829456055 -16.798625451331592" fill="#ff5c08" stroke="none" /><path d="M 96.76829788921471 120.74984581791261 l -6.6443545258957055 42.66152239458236 a64.1758374567216,64.1758374567216 0 0,0 -1.087085197322178,-0.17887945553492782 l 7.375717226270947 -42.54117694055177" fill="#30ff2f" stroke="none" /><path d="M 96.41257539226777 120.69131181640829 l -4.662182325761311 26.89022872825077 a48.2913969062832,48.2913969062832 0 0,0 -0.8155848167123135,-0.14862672216467943 l 5.123101876024681 -26.80623383215472" fill="#fffe18" stroke="none" /><path d="M 95.70440661134978 120.55596938700252 l -2.4152384829800764 11.55779046723261 a32.80745092787266,32.80745092787266 0 0,0 -0.550286534843816,-0.11993238905154092 l 2.613287434443029 -11.51462662004735" fill="#ff0400" stroke="none" /><path d="M 95.00130118170881 120.39639698878247 l -3.543368695119694 14.458153453620485 a35.8860224035164,35.8860224035164 0 0,0 -0.5970660130944812,-0.15177184572013652 l 3.791040001439554 -14.395196376065085" fill="#ff3905" stroke="none" /><path d="M 93.27111125876986 119.89276391827306 l -4.287694335651594 12.67580642999915 a34.38134490127157,34.38134490127157 0 0,0 -0.5574594994386805,-0.19391335145269073 l 4.504659607135295 -12.60033464597787" fill="#ff2003" stroke="none" /><path d="M 92.59220618246901 119.65005319985036 l -5.679328755113215 15.065094267784374 a37.10005715536083,37.10005715536083 0 0,0 -0.5940032513670362,-0.2297732182719675 l 5.93710426897378 -14.965381161374365" fill="#ff4e07" stroke="none" /><path d="M 91.92203290615298 119.3841803445677 l -10.214548769759723 24.511198571509592 a47.55439440058413,47.55439440058413 0 0,0 -0.7508271049878736,-0.32048344417988334 l 10.633810949918027 -24.332240477670304" fill="#fff316" stroke="none" /><path d="M 91.26138138417905 119.09545874513695 l -5.024643015514171 10.979751792586674 a33.07484935144806,33.07484935144806 0 0,0 -0.514252933345144,-0.2406963389583532 l 5.212384662730805 -10.891879222057794" fill="#ff0901" stroke="none" /><path d="M 90.93487009805054 118.94263497670748 l -4.994495083433959 10.436573803327843 a32.570093080470656,32.570093080470656 0 0,0 -0.5022614678424198,-0.24568125256484777 l 5.172916800538448 -10.349298800665773" fill="#ff0000" stroke="none" /><path d="M 89.97174638481275 118.45085714620012 l -27.896935076612163 51.327218443685034 a79.41851025004382,79.41851025004382 0 0,0 -1.192245091633831,-0.6613182546698946 l 28.773924356402098 -50.84076727358199" fill="#46fff8" stroke="none" /><line stroke="#e1ed5e" stroke-width="0.3" x1="58.13341422392154" x2="55.67067388415222" y1="173.97424548756322" y2="178.32567169271397" /><path d="M 57.64086615596768 174.84453072859336 a86.0,86.0 0 0,1 -31.369924170532247,-30.572349798747897" fill="none" id="id44" stroke="none" /><text fill="#e1ed5e" style="font-size:6.75px; font-family:Arial;" text-anchor="middle"><textPath startOffset="22.145653131862474" xlink:href="#id44">August</textPath></text><path d="M 89.65649057296885 118.27599006163327 l -6.426472955063816 11.35496193885255 a34.047402625616975,34.047402625616975 0 0,0 -0.5061835975955821,-0.2922452363311847 l 6.620449020519797 -11.242969805245195" fill="#ff1a02" stroke="none" /><path d="M 88.72937992617639 117.7192867562869 l -8.699757930725717 13.677464458485012 a37.20983720048865,37.20983720048865 0 0,0 -0.5360243035488298,-0.3474444774984441 l 8.933267866531557 -13.526106139282675" fill="#ff5007" stroke="none" /><line stroke="#e1ed5e" stroke-width="0.3" x1="26.387840678322732" x2="22.057713659400548" y1="142.50000000000003" y2="145.00000000000006" /><path d="M 25.521815274538298 143.00000000000003 a86.0,86.0 0 0,1 -11.493303480769221,-40.785679425670985" fill="none" id="id45" stroke="none" /><text fill="#e1ed5e" style="font-size:6.75px; font-family:Arial;" text-anchor="middle"><textPath startOffset="21.40746469413373" xlink:href="#id45">September</textPath></text><path d="M 81.4637452351635 109.86951160357371 l -15.09044916119431 8.034814205406732 a38.09619534288246,38.09619534288246 0 0,0 -0.30239658887679155,-0.5798853316560534 l 15.226153819046052 -7.774582630646177" fill="#ff5f08" stroke="none" /><path d="M 80.83023694016515 108.57439118712176 l -14.523220915623641 6.496051987646149 a36.90982832057623,36.90982832057623 0 0,0 -0.25373945857436975,-0.5806055377308519 l 14.632594256214979 -6.245784380139448" fill="#ff4b06" stroke="none" /><path d="M 79.0935383218832 101.97986365728391 l -62.7193850343504 5.9395909718517395 a84.0,84.0 0 0,0 -0.12362550920903681,-1.4367158104973519 l 62.812104166257186 -4.862054113978725" fill="#4dd2ff" stroke="none" /><path d="M 79.01933749520258 100.90099992219065 l -15.122484344224365 0.649424545786383 a36.136422463117924,36.136422463117924 0 0,0 -0.021295216133105355,-0.6199869825964669 l 15.131404247354318 -0.38973129862579625" fill="#ff3e05" stroke="none" /><line stroke="#e1ed5e" stroke-width="0.3" x1="15.003131293944662" x2="10.003315487706104" y1="100.72959589197737" y2="100.7725132973878" /><path d="M 14.003168132696942 100.73817937305945 a86.0,86.0 0 0,1 10.791469493833604,-42.45332614584628" fill="none" id="id46" stroke="none" /><text fill="#e1ed5e" style="font-size:6.75px; font-family:Arial;" text-anchor="middle"><textPath startOffset="22.145653131862435" xlink:href="#id46">October</textPath></text><path d="M 79.00077361379809 100.18025310272382 l -57.962370253779 0.49753723719725507 a78.96450559384219,78.96450559384219 0 0,0 0.0,-1.355580679842124 l 57.962370253779 0.49753723719723375" fill="#45fff3" stroke="none" /><path d="M 79.00077361379809 99.81974689727619 l -18.34248006573648 -0.15744813083548576 a39.34315580470939,39.34315580470939 0 0,0 0.011594181467703989,-0.6753029450151228 l 18.337074452670112 0.4722979918196609" fill="#ff730a" stroke="none" /><path d="M 79.01933749520258 99.09900007780938 l -14.486390550374255 -0.6221079413352968 a35.499742393182196,35.499742393182196 0 0,0 0.03137232350088902,-0.6086146947336236 l 14.473576637416796 0.8706944294456325" fill="#ff3304" stroke="none" /><path d="M 79.03789590574601 98.7389718711861 l -28.061876238110237 -1.6881327906987982 a49.112607319884944,49.112607319884944 0 0,0 0.05785006485474515,-0.841127246643955 l 28.02876221209043 2.1696034614970783" fill="#f4ff19" stroke="none" /><path d="M 79.06263194458094 98.37931529534042 l -16.048901639358977 -1.2422864872341597 a37.09691024843538,37.09691024843538 0 0,0 0.05459671928029064,-0.6344966366014951 l 16.025211297380945 1.5176041712113353" fill="#ff4e07" stroke="none" /><line stroke="#e1ed5e" stroke-width="0.3" x1="26.387840678322718" x2="22.05771365940052" y1="57.49999999999999" y2="54.99999999999999" /><path d="M 25.521815274538284 56.99999999999999 a86.0,86.0 0 0,1 29.574782752854787,-30.34633250058573" fill="none" id="id47" stroke="none" /><text fill="#e1ed5e" style="font-size:6.75px; font-family:Arial;" text-anchor="middle"><textPath startOffset="21.40746469413373" xlink:href="#id47">November</textPath></text><line stroke="#e1ed5e" stroke-width="0.3" x1="56.869717070023135" x2="54.33264160355391" y1="26.7553504044142" y2="22.446841604673864" /><path d="M 56.362301976729285 25.89364864446614 a86.0,86.0 0 0,1 42.16139366436587,-11.88097634709845" fill="none" id="id48" stroke="none" /><text fill="#e1ed5e" style="font-size:6.75px; font-family:Arial;" text-anchor="middle"><textPath startOffset="22.145653131862474" xlink:href="#id48">December</textPath></text></svg>